<?xml version="1.0" encoding="UTF-8"?>
<svg width="24px" height="24px" viewBox="0 0 24 24" version="1.1" xmlns="http://www.w3.org/2000/svg" xmlns:xlink="http://www.w3.org/1999/xlink">
    <!-- Generator: Sketch 59.1 (86144) - https://sketch.com -->
    <title>LINE/status/ check list Copy 2</title>
    <desc>Created with Sketch.</desc>
    <defs>
        <path d="M23.5,0 C23.776,0 24,0.224 24,0.5 L24,23.5 C24,23.776 23.776,24 23.5,24 L0.5,24 C0.224,24 0,23.776 0,23.5 L0,0.5 C0,0.224 0.224,0 0.5,0 L23.5,0 Z M23,1 L1,1 L1,23 L23,23 L23,1 Z M10.853,13.147 C11.048,13.342 11.048,13.659 10.853,13.854 L5.853,18.854 C5.756,18.951 5.628,19 5.5,19 C5.372,19 5.244,18.951 5.146,18.854 L3.146,16.854 C2.951,16.659 2.951,16.342 3.146,16.147 C3.341,15.952 3.658,15.952 3.853,16.147 L5.5,17.793 L10.146,13.147 C10.341,12.952 10.658,12.952 10.853,13.147 Z M20.5,17 C20.776,17 21,17.224 21,17.5 C21,17.776 20.776,18 20.5,18 L12.5,18 C12.224,18 12,17.776 12,17.5 C12,17.224 12.224,17 12.5,17 L20.5,17 Z M10.853,4.147 C11.048,4.342 11.048,4.659 10.853,4.854 L5.853,9.854 C5.756,9.951 5.628,10 5.5,10 C5.372,10 5.244,9.951 5.146,9.854 L3.146,7.854 C2.951,7.659 2.951,7.342 3.146,7.147 C3.341,6.952 3.658,6.952 3.853,7.147 L5.5,8.793 L10.146,4.147 C10.341,3.952 10.658,3.952 10.853,4.147 Z M20.5,8 C20.776,8 21,8.224 21,8.5 C21,8.776 20.776,9 20.5,9 L12.5,9 C12.224,9 12,8.776 12,8.5 C12,8.224 12.224,8 12.5,8 L20.5,8 Z" id="path-1"></path>
    </defs>
    <g id="---↳-Journalføring" stroke="none" stroke-width="1" fill="none" fill-rule="evenodd">
        <g id="4---Opprett-ny-sak-med-behandlingsstatus-søknad" transform="translate(-50.000000, -988.000000)">
            <g id="LINE/status/-check-list" transform="translate(50.000000, 988.000000)">
                <mask id="mask-2" fill="white">
                    <use xlink:href="#path-1"></use>
                </mask>
                <use id="Mask" fill="#3E3832" fill-rule="evenodd" xlink:href="#path-1"></use>
                <g id="↪︎-🌈" stroke-width="1" fill-rule="evenodd" mask="url(#mask-2)" fill="#3E3832">
                    <g transform="translate(12.000000, 12.000000) scale(1, -1) translate(-12.000000, -12.000000) " id="iconfarge-/-nav-grå">
                        <rect x="0" y="0" width="24" height="24"></rect>
                    </g>
                </g>
            </g>
        </g>
    </g>
</svg>