<svg width="20" height="20" viewBox="0 0 20 20" fill="none" xmlns="http://www.w3.org/2000/svg">
<path fill-rule="evenodd" clip-rule="evenodd" d="M17.0833 19.1667H15.8333V15.4167C15.8333 12.9608 14.3058 10.8592 12.1525 10C14.3058 9.14083 15.8333 7.03917 15.8333 4.58333V0.833333H17.0833C17.3133 0.833333 17.5 0.646667 17.5 0.416667C17.5 0.186667 17.3133 0 17.0833 0H15.4167H4.58333H2.91667C2.68667 0 2.5 0.186667 2.5 0.416667C2.5 0.646667 2.68667 0.833333 2.91667 0.833333H4.16667V4.58333C4.16667 7.03917 5.69417 9.14083 7.8475 10C5.69417 10.8592 4.16667 12.9608 4.16667 15.4167V19.1667H2.91667C2.68667 19.1667 2.5 19.3533 2.5 19.5833C2.5 19.8133 2.68667 20 2.91667 20H4.58333H15.4167H17.0833C17.3133 20 17.5 19.8133 17.5 19.5833C17.5 19.3533 17.3133 19.1667 17.0833 19.1667ZM5 0.833333H15V4.58333C15 5.6725 14.6458 6.67833 14.0525 7.5H5.9475C5.35417 6.67833 5 5.6725 5 4.58333V0.833333ZM6.70417 8.33333H13.2958C12.415 9.10917 11.2633 9.58333 10 9.58333C8.73667 9.58333 7.585 9.10917 6.70417 8.33333ZM10 10.4167C12.7575 10.4167 15 12.6592 15 15.4167V15.8333H12.6725L10.2942 13.455C10.1317 13.2925 9.8675 13.2925 9.705 13.455L7.3275 15.8333H5V15.4167C5 12.6592 7.2425 10.4167 10 10.4167ZM5 19.1667V16.6667H7.5C7.61083 16.6667 7.71667 16.6225 7.795 16.545L10 14.3392L12.205 16.5442C12.2833 16.6225 12.3892 16.6667 12.5 16.6667H15V19.1667H5Z" fill="#3E3832"/>
</svg>
