<svg width="20" height="20" viewBox="0 0 20 20" fill="none" xmlns="http://www.w3.org/2000/svg">
<path d="M18.1212 1.24035C16.4414 -0.413448 13.7233 -0.413449 12.0435 1.24035L9.8961 3.35456C9.56814 3.67745 9.56403 4.20507 9.88692 4.53304C10.2098 4.861 10.7374 4.86511 11.0654 4.54222L13.2128 2.428C14.2439 1.41289 15.9209 1.41289 16.9519 2.428L17.5655 3.03207C18.5893 4.04007 18.5893 5.6689 17.5655 6.6769L13.2706 10.9053C12.2396 11.9204 10.5626 11.9204 9.53153 10.9053L8.91798 10.3013C8.59002 9.97838 8.0624 9.98249 7.7395 10.3104C7.41661 10.6384 7.42072 11.166 7.74869 11.4889L8.36223 12.093C10.042 13.7468 12.7601 13.7468 14.4399 12.093L18.7348 7.86456C20.4217 6.20365 20.4217 3.50532 18.7348 1.84441L18.1212 1.24035Z" fill="#262626"/>
<path d="M1.8788 18.7597C3.55856 20.4134 6.27671 20.4134 7.95647 18.7597L10.1039 16.6454C10.4319 16.3225 10.436 15.7949 10.1131 15.467C9.79018 15.139 9.26256 15.1349 8.9346 15.4578L6.78718 17.572C5.75612 18.5871 4.07915 18.5871 3.04809 17.572L2.43454 16.9679C1.41071 15.9599 1.41071 14.3311 2.43454 13.3231L6.72938 9.09467C7.76044 8.07955 9.43741 8.07955 10.4685 9.09467L11.082 9.69873C11.41 10.0216 11.9376 10.0175 12.2605 9.68955C12.5834 9.36159 12.5793 8.83397 12.2513 8.51107L11.6378 7.90701C9.958 6.25322 7.23985 6.25322 5.56009 7.90701L1.26525 12.1354C-0.421749 13.7964 -0.421749 16.4947 1.26525 18.1556L1.8788 18.7597Z" fill="#262626"/>
</svg>
